<?xml version="1.0" standalone="no"?><!DOCTYPE svg PUBLIC "-//W3C//DTD SVG 1.1//EN" "http://www.w3.org/Graphics/SVG/1.1/DTD/svg11.dtd"><svg t="1620823306795" class="icon" viewBox="0 0 1024 1024" version="1.1" xmlns="http://www.w3.org/2000/svg" p-id="1945" xmlns:xlink="http://www.w3.org/1999/xlink" width="200" height="200"><defs><style type="text/css"></style></defs><path d="M322.56 744.96c-20.992 0-38.4-17.408-38.4-38.4 0-272.384 223.232-494.08 498.176-494.08H967.68c20.992 0 38.4 17.408 38.4 38.4s-17.408 38.4-38.4 38.4h-185.344c-232.448 0-421.376 187.392-421.376 417.28 0 20.992-17.408 38.4-38.4 38.4z" p-id="1946"></path><path d="M793.6 473.6c-9.728 0-19.456-3.584-27.136-11.264-14.848-14.848-14.848-39.424 0-54.272L923.648 250.88l-157.184-157.184c-14.848-14.848-14.848-39.424 0-54.272 14.848-14.848 39.424-14.848 54.272 0l184.32 184.32c14.848 14.848 14.848 39.424 0 54.272l-184.32 184.32c-7.68 7.68-17.408 11.264-27.136 11.264zM790.016 995.84H105.984c-54.272 0-98.304-44.032-98.304-98.816V239.616c0-54.272 44.032-98.816 98.304-98.816h241.152c20.992 0 38.4 17.408 38.4 38.4s-17.408 38.4-38.4 38.4H105.984c-11.776 0-21.504 9.728-21.504 22.016v657.92c0 12.288 9.728 22.016 21.504 22.016h684.032c11.776 0 21.504-9.728 21.504-22.016v-294.4c0-20.992 17.408-38.4 38.4-38.4s38.4 17.408 38.4 38.4v294.4c0 54.272-44.032 98.304-98.304 98.304z" p-id="1947"></path></svg>