<?xml version="1.0" standalone="no"?><!DOCTYPE svg PUBLIC "-//W3C//DTD SVG 1.1//EN" "http://www.w3.org/Graphics/SVG/1.1/DTD/svg11.dtd"><svg t="1620823363573" class="icon" viewBox="0 0 1024 1024" version="1.1" xmlns="http://www.w3.org/2000/svg" p-id="3783" xmlns:xlink="http://www.w3.org/1999/xlink" width="200" height="200"><defs><style type="text/css"></style></defs><path d="M945.152 417.792c-17.408-21.504-43.52-33.792-71.168-33.792h-263.168l37.888-129.536c15.36-53.248 5.12-109.568-28.16-153.6C586.752 56.32 536.064 30.72 480.256 30.72c-18.432 0-34.816 12.288-39.424 29.696L372.736 295.424c-15.36 52.224-64 88.576-117.76 88.576-16.896 0-30.72 13.824-30.72 30.72v417.28c0 50.688 41.472 92.16 92.16 92.16H752.64c38.912 0 74.24-25.088 87.552-62.464l123.392-363.008c0.512-1.024 1.024-2.56 1.024-4.096 5.632-27.136-1.536-55.296-19.456-76.8zM904.704 481.28l-122.368 360.448c-4.608 12.288-16.384 20.992-29.184 20.992H316.416c-16.896 0-30.72-13.824-30.72-30.72v-389.12c68.096-11.776 125.952-61.952 146.432-130.048l63.488-219.648c30.208 4.096 57.344 19.456 75.776 44.544 21.504 28.672 28.16 65.024 18.432 99.84l-49.152 168.96c-2.56 9.216-1.024 19.456 5.12 27.136s14.848 12.288 24.576 12.288h304.128c12.8 0 20.48 7.168 23.552 11.264 5.12 6.656 7.68 15.36 6.656 24.064zM88.576 395.776c-16.896 0-30.72 13.824-30.72 30.72v427.52c0 16.896 13.824 30.72 30.72 30.72s30.72-13.824 30.72-30.72V426.496c0-16.896-13.824-30.72-30.72-30.72z" fill="#333333" p-id="3784"></path></svg>